<svg id="svg" version="1.1" xmlns="http://www.w3.org/2000/svg" xmlns:xlink="http://www.w3.org/1999/xlink" width="400" height="568.0555555555555" viewBox="0, 0, 400,568.0555555555555"><g id="svgg"><path id="path0" d="M196.227 28.356 C 196.106 28.551,195.511 28.832,194.904 28.979 C 194.297 29.126,192.630 29.800,191.200 30.476 C 189.770 31.153,188.175 31.904,187.655 32.145 C 187.136 32.386,186.555 32.992,186.365 33.492 C 186.172 33.998,185.682 34.400,185.256 34.400 C 184.836 34.400,184.183 34.895,183.805 35.500 C 183.427 36.105,182.118 37.544,180.897 38.698 C 179.675 39.852,178.473 41.202,178.226 41.698 C 177.737 42.680,176.373 42.919,176.091 42.074 C 175.994 41.783,176.294 41.448,176.758 41.327 C 177.312 41.182,177.600 40.786,177.600 40.170 C 177.600 39.654,178.093 38.775,178.696 38.216 C 179.299 37.657,179.628 37.200,179.427 37.200 C 179.227 37.200,178.731 37.501,178.324 37.868 C 177.918 38.236,176.663 38.862,175.535 39.259 C 174.407 39.656,173.181 40.256,172.810 40.591 C 171.905 41.410,171.636 41.361,171.230 40.300 C 170.822 39.231,171.896 37.028,173.898 34.827 C 175.222 33.371,175.486 32.800,174.834 32.800 C 174.633 32.800,173.792 33.745,172.966 34.900 C 172.140 36.055,171.045 37.412,170.532 37.916 C 170.020 38.420,169.600 39.244,169.600 39.746 C 169.600 40.913,168.165 42.237,166.523 42.584 C 165.398 42.821,165.230 43.030,165.123 44.327 C 164.995 45.864,162.800 46.948,162.800 45.474 C 162.800 44.993,162.578 44.972,161.500 45.350 C 159.194 46.160,158.962 46.453,160.143 47.072 C 161.423 47.742,161.543 49.165,160.408 50.193 C 159.855 50.693,159.461 50.790,159.108 50.513 C 157.990 49.638,156.923 49.660,157.085 50.555 C 157.180 51.077,156.825 51.839,156.156 52.550 L 155.075 53.700 154.525 52.650 C 154.222 52.073,153.735 51.600,153.442 51.600 C 152.336 51.600,152.926 46.378,154.306 43.955 C 154.982 42.770,155.638 41.080,155.764 40.200 C 155.961 38.831,155.940 38.765,155.620 39.743 C 155.415 40.372,154.987 41.182,154.670 41.543 C 154.354 41.904,153.971 42.605,153.820 43.100 C 153.659 43.628,153.227 44.000,152.773 44.000 C 151.902 44.000,151.816 43.785,152.406 43.083 C 153.474 41.810,154.792 39.511,154.616 39.226 C 154.508 39.050,154.775 38.585,155.209 38.191 C 155.644 37.798,155.997 37.279,155.994 37.038 C 155.990 36.726,155.903 36.727,155.694 37.044 C 155.532 37.288,154.707 37.735,153.860 38.039 C 152.437 38.548,150.800 40.193,150.800 41.113 C 150.800 41.327,150.502 41.749,150.138 42.051 C 149.774 42.353,149.232 43.185,148.933 43.900 C 148.634 44.615,148.231 45.200,148.037 45.200 C 147.544 45.200,147.182 46.287,147.446 46.975 C 147.567 47.291,147.892 47.463,148.169 47.357 C 149.155 46.978,150.922 50.630,150.023 51.186 C 149.628 51.430,149.620 51.691,149.990 52.382 C 150.385 53.120,150.343 53.357,149.732 53.820 C 148.337 54.877,146.928 54.477,147.156 53.089 C 147.184 52.918,146.936 52.673,146.604 52.546 C 146.272 52.419,146.000 51.988,146.000 51.590 C 146.000 50.583,145.584 49.600,145.157 49.600 C 144.559 49.600,144.760 50.929,145.555 52.233 C 146.107 53.138,146.201 53.655,145.910 54.175 C 145.595 54.738,145.769 55.117,146.757 56.019 C 147.979 57.135,148.412 58.400,147.573 58.400 C 147.316 58.400,147.255 58.758,147.419 59.300 C 147.876 60.807,147.829 61.005,147.045 60.870 C 146.456 60.768,146.338 60.921,146.508 61.570 C 146.664 62.165,146.536 62.400,146.059 62.400 C 145.294 62.400,144.256 63.844,144.610 64.416 C 144.741 64.627,144.327 64.800,143.689 64.800 C 142.446 64.800,141.943 67.775,143.063 68.499 C 143.972 69.087,143.178 70.488,142.030 70.319 C 141.324 70.215,140.649 70.469,139.995 71.082 C 139.457 71.587,138.760 72.000,138.446 72.000 C 137.991 72.000,138.014 72.152,138.556 72.751 C 139.206 73.470,139.157 73.549,137.408 74.574 C 136.403 75.163,135.686 75.815,135.814 76.023 C 135.942 76.230,135.767 76.400,135.424 76.400 C 135.021 76.400,134.800 76.763,134.800 77.424 C 134.800 78.033,134.969 78.343,135.218 78.189 C 135.656 77.918,136.800 78.665,136.800 79.222 C 136.800 79.401,136.305 79.604,135.700 79.673 C 134.731 79.785,134.590 79.983,134.515 81.336 C 134.449 82.540,134.540 82.781,134.939 82.451 C 135.310 82.143,135.629 82.242,136.124 82.819 C 137.066 83.919,136.976 84.102,135.638 83.808 C 134.114 83.474,133.834 84.029,134.601 85.864 C 135.348 87.652,135.059 89.464,133.972 89.809 C 133.547 89.944,133.177 90.267,133.149 90.527 C 133.121 90.787,133.044 91.450,132.977 92.000 C 132.911 92.550,132.946 93.315,133.055 93.700 C 133.319 94.631,134.400 94.600,134.400 93.662 C 134.400 93.256,134.763 92.596,135.206 92.195 C 135.675 91.770,135.920 91.180,135.793 90.779 C 135.541 89.985,137.067 89.941,138.800 90.693 C 139.350 90.932,140.372 91.340,141.071 91.600 C 141.770 91.860,142.670 92.444,143.071 92.898 C 143.871 93.802,144.047 93.802,140.056 92.903 C 139.244 92.720,139.148 92.807,139.376 93.525 C 139.690 94.513,138.939 97.600,138.385 97.600 C 138.173 97.600,137.994 97.195,137.987 96.700 C 137.961 94.854,136.304 93.840,134.834 94.770 C 133.813 95.417,135.362 99.439,136.828 99.950 C 137.513 100.188,138.000 100.645,138.000 101.048 C 138.000 101.427,138.268 102.033,138.595 102.395 C 138.923 102.757,139.296 103.671,139.424 104.426 C 139.648 105.746,139.632 105.768,139.004 105.000 C 138.222 104.042,137.200 104.978,137.200 106.652 C 137.200 107.381,136.995 107.536,136.116 107.475 C 135.317 107.420,134.990 107.611,134.873 108.200 C 134.609 109.531,133.981 110.082,133.337 109.548 C 132.640 108.969,132.138 109.402,132.708 110.090 C 133.011 110.456,132.927 111.017,132.409 112.081 C 131.699 113.540,131.701 113.570,132.544 114.156 L 133.400 114.750 132.200 115.761 C 130.685 117.036,130.205 117.042,129.125 115.800 C 127.575 114.017,126.053 114.814,127.274 116.770 C 127.663 117.392,127.579 117.849,126.814 119.290 C 125.766 121.267,125.829 121.438,128.600 124.087 L 129.800 125.234 128.800 126.022 C 127.864 126.759,127.845 126.845,128.500 127.349 C 128.885 127.646,129.200 128.237,129.200 128.664 C 129.200 129.091,129.421 129.661,129.692 129.932 C 130.397 130.637,130.776 135.566,130.105 135.308 C 129.827 135.202,129.594 134.729,129.586 134.257 C 129.578 133.786,129.314 132.950,129.000 132.400 C 128.686 131.850,128.422 130.995,128.414 130.500 C 128.404 129.871,128.159 129.600,127.600 129.600 C 126.031 129.600,126.464 134.073,128.212 135.913 C 128.988 136.731,129.888 137.685,130.212 138.034 C 130.896 138.770,130.981 140.059,130.385 140.655 C 130.099 140.941,130.099 141.407,130.385 142.161 C 130.613 142.761,130.800 144.040,130.800 145.002 C 130.800 145.965,130.966 146.855,131.168 146.980 C 131.625 147.263,133.600 150.760,133.600 151.287 C 133.600 151.500,133.970 152.144,134.423 152.720 C 134.971 153.417,135.166 154.083,135.006 154.717 C 134.708 155.904,135.154 157.522,135.586 156.822 C 135.751 156.556,135.776 154.957,135.643 153.269 C 135.194 147.598,135.447 139.975,136.195 136.600 C 136.612 134.721,136.935 131.460,136.977 128.700 L 137.049 124.000 136.074 124.000 C 135.065 124.000,135.041 123.748,135.709 120.273 C 135.759 120.013,135.440 119.800,135.000 119.800 C 134.268 119.800,134.198 120.074,134.178 123.000 C 134.153 126.710,133.530 128.411,132.312 128.093 C 131.649 127.919,131.554 128.026,131.771 128.708 C 132.163 129.945,131.200 130.288,130.335 129.219 C 129.500 128.188,129.346 125.752,130.100 125.498 C 130.375 125.406,130.798 125.598,131.039 125.926 C 131.776 126.926,132.271 126.145,132.542 123.553 C 132.684 122.194,132.993 120.850,133.228 120.567 C 133.532 120.200,133.528 119.813,133.214 119.226 C 132.735 118.331,132.191 118.167,131.800 118.800 C 131.423 119.410,129.362 119.277,128.806 118.607 C 128.397 118.114,128.495 117.944,129.383 117.607 C 130.776 117.077,131.486 117.093,131.837 117.661 C 132.035 117.980,132.288 117.895,132.661 117.384 C 132.957 116.979,133.200 116.806,133.200 117.000 C 133.200 117.194,133.444 117.019,133.742 116.611 C 134.409 115.700,135.473 116.025,135.968 117.290 C 137.251 120.575,138.704 120.323,139.627 116.657 C 139.886 115.628,140.256 114.689,140.449 114.570 C 140.642 114.450,140.800 113.831,140.800 113.193 C 140.800 111.772,142.016 109.223,142.700 109.210 C 142.975 109.204,143.200 109.372,143.200 109.582 C 143.200 110.180,145.171 112.000,145.818 112.000 C 146.532 112.000,146.566 111.528,145.900 110.855 C 145.499 110.451,145.656 110.137,146.690 109.275 C 147.961 108.216,147.987 108.127,148.368 103.400 C 148.846 97.484,149.433 95.653,151.120 94.819 C 151.809 94.479,152.550 93.705,152.766 93.100 C 152.982 92.495,153.264 92.000,153.393 92.000 C 153.986 92.000,155.600 93.350,155.600 93.846 C 155.600 94.151,155.893 94.400,156.251 94.400 C 156.979 94.400,156.729 91.128,155.981 90.867 C 155.357 90.648,155.547 89.826,156.334 89.334 C 156.968 88.938,157.467 89.256,159.955 91.638 C 163.903 95.417,164.977 95.182,162.200 91.145 C 161.430 90.026,160.800 88.793,160.800 88.405 C 160.800 88.017,160.687 87.136,160.549 86.447 C 160.322 85.312,160.417 85.153,161.549 84.758 C 162.237 84.518,162.800 84.182,162.800 84.012 C 162.800 83.842,163.565 83.559,164.500 83.384 C 167.111 82.896,167.202 82.875,170.400 82.018 C 172.050 81.576,174.334 81.211,175.476 81.207 C 176.618 81.203,177.648 81.046,177.765 80.857 C 177.881 80.669,179.515 80.418,181.394 80.301 C 183.274 80.184,185.079 79.866,185.405 79.596 C 185.867 79.212,186.415 79.208,187.899 79.573 C 192.510 80.711,192.800 80.827,192.800 81.540 C 192.800 83.138,194.838 84.370,198.500 84.984 C 199.636 85.175,200.000 85.426,200.000 86.018 C 200.000 86.859,201.302 87.001,203.800 86.433 C 205.647 86.013,207.375 87.068,208.233 89.141 C 209.049 91.111,209.852 91.753,212.495 92.548 C 213.511 92.854,215.174 93.666,216.191 94.352 C 217.530 95.256,218.503 95.601,219.720 95.602 C 222.129 95.605,224.121 96.251,225.171 97.369 C 225.708 97.941,226.930 98.531,228.142 98.803 C 230.838 99.408,235.274 101.190,235.870 101.907 C 236.129 102.218,236.928 102.771,237.646 103.136 C 238.931 103.790,240.749 106.396,240.783 107.632 C 240.792 107.980,241.205 108.482,241.701 108.747 C 243.135 109.514,245.179 113.427,245.194 115.432 C 245.197 115.890,245.654 117.150,246.208 118.232 C 246.762 119.314,247.473 120.920,247.787 121.800 C 248.102 122.680,248.742 124.390,249.210 125.600 C 249.992 127.622,250.597 129.391,251.614 132.628 C 251.826 133.304,252.001 135.734,252.003 138.028 C 252.008 144.772,253.527 162.860,254.139 163.472 C 254.506 163.839,255.342 160.261,255.301 158.500 C 255.279 157.565,255.427 156.800,255.631 156.800 C 255.834 156.800,256.000 156.372,256.000 155.849 C 256.000 155.326,256.270 154.674,256.600 154.400 C 256.930 154.126,257.200 153.654,257.200 153.351 C 257.200 153.048,257.358 152.800,257.551 152.800 C 258.138 152.800,259.600 148.946,259.600 147.400 C 259.600 146.601,259.808 145.559,260.062 145.083 C 260.317 144.608,260.654 142.145,260.812 139.610 C 260.969 137.074,261.388 134.000,261.741 132.779 C 262.158 131.340,262.427 128.563,262.507 124.894 C 262.622 119.623,262.695 119.164,263.552 118.251 C 264.392 117.357,264.467 116.933,264.412 113.436 C 264.378 111.326,264.370 109.195,264.394 108.700 C 264.418 108.205,264.437 106.180,264.436 104.200 C 264.435 102.220,264.614 99.925,264.833 99.100 C 265.239 97.569,264.703 94.860,263.577 92.757 C 263.310 92.258,263.007 91.209,262.903 90.425 C 262.799 89.641,262.553 88.697,262.357 88.326 C 262.161 87.956,262.000 87.199,262.000 86.645 C 262.000 85.024,260.102 80.776,259.411 80.850 C 258.257 80.975,257.600 80.739,257.600 80.200 C 257.600 79.870,257.437 79.600,257.237 79.600 C 257.038 79.600,256.969 79.240,257.084 78.800 C 257.218 78.290,257.095 77.997,256.747 77.993 C 255.184 77.973,253.568 74.161,254.800 73.400 C 255.329 73.073,255.316 70.519,254.784 70.190 C 254.555 70.048,254.476 69.592,254.608 69.175 C 254.934 68.148,252.283 65.777,249.300 64.427 C 248.805 64.203,248.400 63.752,248.400 63.424 C 248.400 63.096,248.040 62.635,247.600 62.400 C 246.329 61.720,246.633 61.104,248.100 61.387 C 249.708 61.697,248.549 60.553,246.813 60.118 C 246.271 59.981,245.461 59.528,245.013 59.110 C 244.209 58.359,244.209 58.353,245.000 58.594 C 245.771 58.829,245.773 58.819,245.045 58.319 C 244.630 58.034,243.743 57.211,243.073 56.491 C 242.403 55.771,241.078 54.691,240.128 54.091 C 238.370 52.980,237.882 51.774,239.015 51.339 C 239.905 50.997,243.155 52.342,244.119 53.451 C 245.026 54.494,246.000 54.706,246.000 53.859 C 246.000 53.562,245.460 52.754,244.800 52.063 C 244.140 51.372,243.600 50.667,243.600 50.496 C 243.600 50.325,242.520 49.591,241.200 48.865 C 239.880 48.140,238.800 47.451,238.800 47.335 C 238.800 47.026,242.882 47.630,243.700 48.060 C 244.139 48.291,244.400 48.283,244.400 48.040 C 244.400 47.826,243.787 47.430,243.038 47.159 C 242.230 46.867,241.755 46.462,241.869 46.164 C 242.166 45.390,240.663 44.795,237.698 44.514 C 235.192 44.277,235.096 44.233,236.344 43.906 C 237.960 43.483,237.840 43.242,235.979 43.175 C 231.029 42.994,229.164 41.583,232.902 40.847 L 235.000 40.434 232.054 40.567 C 227.969 40.751,224.440 39.153,225.422 37.565 C 225.746 37.040,229.143 37.532,230.189 38.255 C 231.338 39.049,232.800 38.957,232.800 38.091 C 232.800 37.298,230.392 35.833,229.055 35.813 C 228.585 35.806,228.244 35.578,228.297 35.308 C 228.519 34.189,226.490 33.535,222.391 33.403 C 219.301 33.303,218.168 33.114,217.603 32.603 C 217.196 32.234,216.354 31.977,215.732 32.030 C 215.109 32.083,214.150 31.943,213.600 31.719 C 209.935 30.224,209.772 30.201,203.800 30.323 C 198.084 30.441,197.688 30.502,195.436 31.623 C 192.576 33.047,191.787 33.145,192.400 32.000 C 192.635 31.560,193.030 31.200,193.276 31.200 C 193.523 31.200,194.281 30.776,194.962 30.258 C 195.643 29.739,196.629 29.180,197.153 29.014 C 197.889 28.781,197.980 28.633,197.553 28.362 C 196.845 27.914,196.502 27.912,196.227 28.356 M182.200 34.000 C 181.369 34.660,180.808 35.200,180.953 35.200 C 181.323 35.200,184.400 33.232,184.400 32.995 C 184.400 32.522,183.599 32.888,182.200 34.000 M151.843 45.433 C 151.709 45.781,151.600 46.141,151.600 46.233 C 151.600 46.325,151.437 46.400,151.237 46.400 C 151.038 46.400,150.969 46.040,151.084 45.600 C 151.199 45.160,151.472 44.800,151.689 44.800 C 151.907 44.800,151.976 45.085,151.843 45.433 M152.042 47.718 C 151.528 48.232,151.007 47.835,151.388 47.220 C 151.535 46.982,151.839 46.900,152.062 47.039 C 152.336 47.207,152.329 47.431,152.042 47.718 M145.870 47.761 C 145.645 48.349,145.903 48.800,146.467 48.800 C 146.650 48.800,146.800 48.440,146.800 48.000 C 146.800 47.083,146.191 46.926,145.870 47.761 M165.928 49.131 C 166.024 49.784,165.850 50.000,165.228 50.000 C 164.692 50.000,164.400 49.742,164.400 49.267 C 164.400 47.746,165.707 47.630,165.928 49.131 M240.854 49.784 L 242.200 50.369 240.776 50.384 C 239.994 50.393,239.004 50.136,238.576 49.813 C 237.475 48.980,238.958 48.961,240.854 49.784 M0.003 50.282 C 0.008 51.172,6.245 53.173,7.979 52.840 C 8.298 52.779,8.781 53.033,9.053 53.404 C 9.647 54.217,10.400 53.859,10.400 52.764 C 10.400 51.949,10.106 51.754,8.400 51.437 C 7.850 51.335,6.545 51.083,5.500 50.877 C 4.455 50.672,3.597 50.615,3.594 50.752 C 3.591 50.888,3.456 50.801,3.294 50.558 C 2.723 49.698,-0.000 49.470,0.003 50.282 M238.009 57.205 C 238.482 57.458,238.787 57.747,238.686 57.847 C 238.392 58.141,231.056 57.158,230.400 56.736 C 229.527 56.174,236.937 56.631,238.009 57.205 M154.391 82.500 C 154.396 82.665,154.249 82.800,154.064 82.800 C 153.739 82.800,152.791 81.049,152.809 80.481 C 152.820 80.116,154.379 82.105,154.391 82.500 M259.421 85.764 C 259.732 86.075,260.214 86.410,260.493 86.510 C 261.198 86.761,260.813 87.061,259.400 87.362 C 258.286 87.599,258.194 87.531,258.116 86.409 C 258.026 85.106,258.519 84.862,259.421 85.764 M131.867 85.867 C 131.720 86.013,131.600 86.407,131.600 86.741 C 131.600 87.075,131.243 87.729,130.806 88.193 C 130.370 88.658,129.897 89.616,129.756 90.321 L 129.499 91.604 131.597 89.603 C 133.665 87.631,133.685 87.589,133.038 86.601 C 132.323 85.510,132.261 85.472,131.867 85.867 M261.043 88.700 C 261.335 89.085,261.580 89.715,261.587 90.100 C 261.594 90.485,261.780 90.800,262.000 90.800 C 262.220 90.800,262.400 90.980,262.400 91.200 C 262.400 92.036,261.163 91.554,260.790 90.573 C 260.504 89.820,260.201 89.609,259.656 89.782 C 259.227 89.918,258.699 89.760,258.407 89.409 C 257.990 88.906,258.015 88.800,258.551 88.800 C 258.908 88.800,259.200 88.620,259.200 88.400 C 259.200 87.741,260.472 87.948,261.043 88.700 M124.100 94.293 C 123.598 94.630,123.221 95.274,123.246 95.749 C 123.283 96.425,123.330 96.456,123.476 95.900 C 123.576 95.515,123.893 95.200,124.180 95.200 C 124.834 95.200,125.751 94.138,125.319 93.880 C 125.144 93.775,124.595 93.961,124.100 94.293 M127.467 93.867 C 126.695 94.638,127.237 96.027,128.400 96.260 C 129.733 96.527,130.005 97.418,128.863 97.780 C 127.894 98.087,126.563 99.566,126.211 100.725 C 125.948 101.590,125.988 101.616,126.817 101.125 C 127.520 100.709,127.742 100.704,127.886 101.100 C 128.100 101.693,129.200 101.777,129.200 101.200 C 129.200 100.980,129.039 100.800,128.843 100.800 C 127.972 100.800,127.998 99.405,128.880 98.725 C 130.075 97.806,130.400 97.822,130.400 98.800 C 130.400 99.244,130.667 99.600,131.000 99.600 C 132.132 99.600,131.397 97.470,129.428 95.044 C 128.234 93.572,127.938 93.395,127.467 93.867 M124.600 97.906 C 123.353 98.822,122.144 104.000,123.176 104.000 C 123.736 104.000,124.043 103.343,124.245 101.712 C 124.345 100.908,124.578 100.059,124.764 99.825 C 125.764 98.567,125.642 97.141,124.600 97.906 M139.779 99.566 C 139.904 99.768,139.806 100.443,139.562 101.066 L 139.118 102.200 138.744 101.226 C 138.186 99.770,139.050 98.386,139.779 99.566 M129.600 102.794 C 129.199 103.057,129.166 103.190,129.500 103.194 C 129.775 103.197,130.000 103.663,130.000 104.229 C 130.000 104.995,130.179 105.224,130.700 105.122 C 131.180 105.028,131.399 104.611,131.398 103.798 C 131.395 102.528,130.645 102.109,129.600 102.794 M126.867 104.920 C 126.614 105.224,126.510 105.576,126.635 105.702 C 126.761 105.828,126.564 106.388,126.197 106.948 C 125.831 107.507,125.641 108.142,125.774 108.359 C 126.162 108.986,128.400 108.033,128.400 107.241 C 128.400 106.866,128.616 106.344,128.880 106.080 C 129.253 105.707,129.253 105.600,128.880 105.600 C 128.616 105.600,128.445 105.386,128.500 105.124 C 128.646 104.427,127.404 104.272,126.867 104.920 M129.900 106.700 C 129.634 107.305,129.255 107.915,129.057 108.055 C 128.859 108.196,128.833 108.530,128.999 108.798 C 129.231 109.173,129.387 109.161,129.676 108.743 C 129.938 108.365,129.976 108.473,129.799 109.100 C 129.483 110.226,131.072 110.414,131.483 109.300 C 131.625 108.915,131.914 108.485,132.124 108.344 C 132.637 108.000,131.561 105.600,130.894 105.600 C 130.613 105.600,130.165 106.095,129.900 106.700 M398.400 107.433 C 396.035 109.063,395.733 109.357,395.045 110.700 C 394.154 112.441,394.671 112.338,396.552 110.400 C 399.747 107.106,399.805 108.901,396.616 112.375 C 393.565 115.700,392.539 118.800,394.489 118.800 C 395.136 118.800,395.241 118.976,395.026 119.700 C 394.879 120.195,394.649 121.314,394.515 122.187 C 394.381 123.060,393.845 124.230,393.323 124.787 C 392.241 125.943,391.706 127.563,392.280 127.943 C 393.076 128.470,393.514 131.435,393.011 132.896 C 392.585 134.136,392.617 134.343,393.297 134.768 C 394.008 135.212,394.017 135.314,393.431 136.209 C 392.369 137.829,392.679 139.053,394.982 142.340 C 396.783 144.910,397.342 146.138,398.178 149.356 C 398.736 151.501,399.368 153.559,399.584 153.928 C 399.843 154.372,399.980 146.429,399.988 130.500 C 399.995 117.245,399.955 106.415,399.900 106.434 C 399.845 106.453,399.170 106.903,398.400 107.433 M128.806 110.300 C 128.803 110.795,128.980 111.200,129.200 111.200 C 129.701 111.200,129.701 110.776,129.200 110.000 C 128.886 109.515,128.811 109.572,128.806 110.300 M129.792 111.613 C 129.637 111.864,129.698 112.258,129.928 112.488 C 130.466 113.026,131.719 112.557,131.500 111.900 C 131.277 111.231,130.146 111.041,129.792 111.613 M390.905 121.400 C 390.408 123.019,390.850 123.286,391.536 121.781 C 392.084 120.579,392.126 120.000,391.667 120.000 C 391.484 120.000,391.141 120.630,390.905 121.400 M224.000 132.841 C 223.450 133.079,221.290 133.253,219.200 133.229 C 216.211 133.194,214.632 133.405,211.800 134.219 C 207.856 135.353,207.880 135.350,205.000 134.980 C 202.349 134.639,199.745 136.605,198.838 139.632 C 198.506 140.740,198.093 141.262,197.414 141.432 C 196.888 141.564,196.361 141.926,196.241 142.236 C 196.106 142.589,195.437 142.800,194.455 142.800 C 192.420 142.800,191.892 143.840,193.378 144.923 C 194.502 145.741,194.709 146.400,193.843 146.400 C 192.549 146.400,192.855 147.625,194.405 148.651 C 195.275 149.227,195.889 149.856,195.770 150.049 C 195.650 150.242,196.159 150.400,196.900 150.400 C 198.725 150.400,200.796 152.385,200.810 154.147 C 200.836 157.552,203.018 161.552,204.531 160.971 C 204.869 160.841,205.510 161.110,205.978 161.578 C 209.832 165.432,223.752 167.246,227.412 164.371 C 227.639 164.193,228.344 163.953,228.978 163.838 C 230.360 163.588,230.993 163.036,230.610 162.415 C 230.402 162.080,230.177 162.087,229.747 162.444 C 229.305 162.811,229.055 162.815,228.700 162.460 C 228.345 162.105,228.540 161.878,229.520 161.508 C 230.228 161.240,230.746 160.837,230.672 160.611 C 230.479 160.026,225.651 159.859,224.983 160.414 C 224.681 160.664,224.219 160.735,223.955 160.572 C 223.690 160.409,222.865 160.298,222.121 160.326 C 220.031 160.405,220.950 159.689,223.613 159.166 C 224.926 158.907,226.000 158.523,226.000 158.312 C 226.000 157.825,219.430 158.288,217.878 158.884 C 217.089 159.187,216.630 159.190,216.333 158.893 C 215.688 158.248,216.314 157.600,217.579 157.600 C 218.202 157.600,220.212 157.315,222.045 156.968 C 224.356 156.529,225.423 156.468,225.523 156.768 C 225.733 157.400,226.800 157.296,226.800 156.643 C 226.800 156.336,226.530 155.982,226.200 155.855 C 225.452 155.568,225.436 154.523,226.160 153.137 C 226.561 152.368,226.593 151.953,226.277 151.637 C 225.602 150.962,227.418 151.085,228.820 151.810 C 230.210 152.529,230.279 152.834,229.200 153.507 C 228.383 154.017,228.091 155.200,228.782 155.200 C 228.992 155.200,229.847 154.736,230.682 154.169 C 231.935 153.318,232.514 153.174,234.000 153.347 C 234.990 153.462,236.949 153.680,238.354 153.830 L 240.909 154.104 240.621 152.570 C 240.462 151.726,239.898 150.519,239.366 149.887 C 238.835 149.255,238.400 148.392,238.400 147.969 C 238.400 147.546,238.130 147.200,237.800 147.200 C 237.470 147.200,237.200 147.020,237.200 146.800 C 237.200 146.580,236.772 146.400,236.249 146.400 C 235.726 146.400,235.074 146.130,234.800 145.800 C 234.526 145.470,233.979 145.200,233.584 145.200 C 232.582 145.200,231.600 144.783,231.600 144.357 C 231.600 144.161,231.811 144.000,232.069 144.000 C 232.326 144.000,232.821 143.759,233.169 143.464 C 233.516 143.170,234.817 142.619,236.060 142.240 C 237.304 141.861,238.637 141.202,239.022 140.775 C 239.408 140.349,239.936 140.000,240.194 140.000 C 242.107 140.000,241.776 136.997,239.823 136.631 C 239.030 136.482,238.163 136.009,237.895 135.580 C 237.627 135.151,237.240 134.800,237.035 134.800 C 236.831 134.800,236.355 134.521,235.978 134.180 C 235.566 133.807,233.962 133.417,231.947 133.201 C 230.106 133.003,227.790 132.744,226.800 132.625 C 225.810 132.506,224.550 132.603,224.000 132.841 M162.000 138.721 C 160.570 138.788,159.229 139.013,159.020 139.221 C 158.811 139.430,158.248 139.600,157.769 139.600 C 156.780 139.600,156.233 140.154,155.795 141.600 C 155.628 142.150,155.320 142.711,155.109 142.846 C 154.473 143.256,155.712 144.800,156.677 144.800 C 159.851 144.800,163.200 146.392,163.200 147.901 C 163.200 148.204,161.878 149.063,160.262 149.809 C 156.396 151.595,153.319 153.950,151.927 156.188 C 150.727 158.115,150.981 158.422,152.933 157.404 C 153.557 157.079,154.817 156.621,155.733 156.387 C 156.650 156.153,158.253 155.511,159.295 154.959 C 160.708 154.211,161.666 153.987,163.064 154.078 C 165.363 154.228,165.730 154.963,163.821 155.593 C 162.473 156.038,162.044 156.711,162.695 157.362 C 162.857 157.524,162.992 157.953,162.995 158.315 C 163.005 159.555,164.770 160.045,168.704 159.899 C 173.114 159.737,173.208 160.804,168.812 161.122 C 166.559 161.285,165.101 162.400,167.140 162.400 C 170.048 162.400,171.046 163.720,168.700 164.462 C 167.327 164.897,166.976 165.204,166.877 166.060 C 166.574 168.678,175.756 167.386,180.464 164.148 C 183.135 162.311,184.751 154.817,183.039 152.204 C 182.688 151.667,182.400 150.952,182.400 150.614 C 182.400 150.276,182.220 150.000,182.000 150.000 C 181.066 150.000,181.752 148.922,183.315 147.933 C 186.877 145.678,184.587 139.933,179.759 139.015 C 178.129 138.705,166.482 138.512,162.000 138.721 M128.000 142.000 C 128.000 142.730,128.166 143.145,128.400 143.000 C 128.620 142.864,128.800 142.414,128.800 142.000 C 128.800 141.586,128.620 141.136,128.400 141.000 C 128.166 140.855,128.000 141.270,128.000 142.000 M163.518 150.846 C 163.436 151.091,162.537 151.608,161.519 151.994 C 160.501 152.381,159.137 153.075,158.487 153.538 C 155.790 155.458,154.276 155.432,156.300 153.500 C 158.348 151.546,163.974 149.477,163.518 150.846 M214.800 154.800 C 214.800 155.020,214.530 155.200,214.200 155.200 C 213.870 155.200,213.600 155.020,213.600 154.800 C 213.600 154.580,213.870 154.400,214.200 154.400 C 214.530 154.400,214.800 154.580,214.800 154.800 M174.758 156.549 C 175.369 157.286,174.941 158.270,173.890 158.545 C 172.771 158.837,172.672 158.693,172.994 157.229 C 173.280 155.924,174.007 155.644,174.758 156.549 M283.725 187.177 C 280.769 187.694,279.452 190.146,281.918 190.540 C 283.464 190.788,291.816 190.199,292.953 189.763 C 293.952 189.379,292.713 188.400,291.229 188.400 C 290.553 188.400,290.000 188.199,290.000 187.953 C 290.000 187.704,289.647 187.599,289.200 187.716 C 288.760 187.831,288.400 187.741,288.400 187.516 C 288.400 187.286,287.921 187.198,287.304 187.316 C 286.702 187.431,285.937 187.397,285.604 187.240 C 285.272 187.082,284.426 187.054,283.725 187.177 M200.128 188.846 C 200.246 189.296,200.093 189.445,199.638 189.326 C 199.054 189.173,198.538 189.483,196.499 191.210 C 196.149 191.505,196.073 192.281,196.247 193.762 C 196.523 196.105,195.755 196.755,193.409 196.166 C 191.288 195.634,187.339 199.525,188.707 200.799 C 189.228 201.285,189.436 201.875,189.313 202.519 C 188.721 205.620,192.736 207.024,197.974 205.547 C 200.542 204.824,201.258 204.763,202.706 205.147 C 203.644 205.396,205.298 205.600,206.382 205.600 C 207.466 205.600,208.464 205.780,208.600 206.000 C 208.736 206.220,209.653 206.603,210.637 206.851 C 212.328 207.277,213.796 208.559,213.374 209.243 C 213.145 209.613,209.627 209.425,206.029 208.851 C 203.400 208.431,201.868 208.620,198.000 209.837 C 196.916 210.178,194.508 210.403,191.950 210.402 C 186.439 210.399,182.800 211.680,182.800 213.623 C 182.800 214.653,175.644 213.918,174.786 212.800 C 174.165 211.992,174.016 211.935,174.009 212.500 C 173.998 213.342,173.849 213.350,171.800 212.612 C 170.149 212.017,168.324 211.792,169.785 212.363 C 170.499 212.642,170.472 212.695,169.500 212.939 C 168.105 213.289,167.291 215.719,167.833 217.913 C 168.259 219.637,170.248 220.073,171.478 218.713 C 171.833 218.321,172.524 218.000,173.013 218.000 C 173.502 218.000,174.112 217.747,174.369 217.437 C 174.626 217.128,175.683 216.786,176.718 216.677 C 177.753 216.569,179.500 216.267,180.600 216.008 C 181.986 215.681,184.319 215.627,188.200 215.833 C 194.567 216.171,194.096 216.173,202.442 215.782 C 206.545 215.589,208.770 215.628,208.935 215.895 C 209.090 216.145,210.550 216.223,212.756 216.097 C 215.507 215.940,216.817 216.054,218.463 216.595 C 221.554 217.609,221.779 217.765,222.003 219.039 C 222.155 219.898,222.480 220.245,223.272 220.397 C 224.515 220.634,226.000 222.358,226.000 223.563 C 226.000 224.288,226.240 224.400,227.800 224.400 C 229.453 224.400,229.600 224.481,229.600 225.400 C 229.600 225.950,229.761 226.400,229.957 226.400 C 230.154 226.400,230.423 226.684,230.557 227.032 C 230.756 227.550,230.589 227.617,229.627 227.406 C 228.341 227.123,227.600 227.935,227.600 229.628 C 227.600 230.469,227.478 230.500,224.971 230.298 C 222.947 230.136,222.292 230.216,222.128 230.644 C 221.837 231.401,221.200 231.348,221.200 230.567 C 221.200 229.653,220.223 230.107,220.078 231.088 C 219.989 231.689,219.742 231.858,219.172 231.709 C 218.574 231.552,218.447 231.657,218.637 232.152 C 218.774 232.508,219.023 232.800,219.190 232.800 C 219.694 232.800,220.006 235.710,219.561 236.247 C 219.334 236.521,218.593 236.729,217.914 236.710 C 217.121 236.687,216.495 236.947,216.160 237.437 C 214.379 240.047,213.035 241.600,212.557 241.600 C 212.254 241.600,211.782 241.960,211.507 242.400 C 211.136 242.994,210.574 243.200,209.327 243.200 C 208.403 243.200,207.549 243.359,207.429 243.554 C 206.989 244.266,202.276 244.885,200.998 244.399 C 199.405 243.794,195.451 244.266,193.400 245.306 C 192.520 245.753,191.710 246.094,191.600 246.064 C 191.006 245.903,190.009 246.541,189.794 247.220 C 189.292 248.799,186.107 250.526,184.259 250.220 C 181.266 249.725,181.108 249.756,180.370 251.000 C 179.979 251.660,179.645 252.300,179.629 252.423 C 179.583 252.772,185.819 256.000,186.539 256.000 C 187.755 256.000,190.400 257.287,190.400 257.879 C 190.400 258.347,190.067 258.414,188.800 258.200 C 187.748 258.022,187.200 258.079,187.200 258.365 C 187.200 258.604,187.541 258.800,187.957 258.800 C 188.374 258.800,188.818 259.070,188.945 259.400 C 189.071 259.730,189.586 260.016,190.087 260.036 C 190.781 260.064,190.675 260.166,189.644 260.462 C 187.871 260.972,180.264 259.456,176.200 257.783 C 175.540 257.511,174.550 257.158,174.000 256.999 C 173.450 256.839,172.370 256.327,171.600 255.860 C 170.830 255.393,170.150 255.064,170.089 255.128 C 169.787 255.445,159.540 250.032,157.800 248.636 C 153.047 244.823,149.472 239.152,148.793 234.350 C 148.249 230.499,147.829 230.570,146.973 234.660 C 146.070 238.975,146.228 242.154,147.527 245.819 C 148.751 249.273,150.700 253.323,151.238 253.529 C 151.423 253.600,151.689 254.269,151.829 255.015 C 151.984 255.842,152.377 256.466,152.834 256.611 C 153.246 256.742,153.896 257.378,154.278 258.024 C 154.660 258.671,155.172 259.200,155.417 259.200 C 156.206 259.200,157.594 261.016,157.690 262.174 C 157.757 262.992,158.121 263.462,159.023 263.891 C 160.211 264.458,161.930 266.944,161.681 267.736 C 161.522 268.241,163.587 270.398,164.612 270.797 C 165.158 271.010,165.455 271.535,165.521 272.403 C 165.576 273.113,165.885 274.072,166.210 274.536 C 167.113 275.825,166.924 276.659,165.500 277.653 C 164.785 278.153,164.110 278.680,164.000 278.825 C 163.890 278.969,163.401 279.608,162.912 280.244 C 161.451 282.148,158.520 286.465,157.240 288.600 C 156.580 289.700,155.451 291.230,154.731 292.000 C 154.011 292.770,152.652 294.435,151.712 295.700 C 150.771 296.965,149.866 298.000,149.701 298.000 C 149.535 298.000,148.692 298.630,147.827 299.400 C 146.083 300.953,144.479 301.347,145.172 300.053 C 145.622 299.212,145.375 298.800,144.421 298.800 C 143.606 298.800,142.618 295.631,142.748 293.433 C 142.864 291.458,143.120 291.035,143.836 291.630 C 144.278 291.996,144.400 291.971,144.400 291.513 C 144.400 291.192,143.977 290.736,143.461 290.500 C 142.387 290.011,142.000 287.694,142.000 281.749 C 142.000 279.911,141.753 277.740,141.448 276.908 C 141.144 276.079,140.739 274.680,140.548 273.800 C 140.050 271.509,139.122 271.699,138.598 274.200 C 138.367 275.300,137.707 277.190,137.132 278.400 C 136.556 279.610,135.941 280.960,135.766 281.400 C 135.485 282.106,135.429 282.063,135.291 281.038 C 135.205 280.398,135.439 279.138,135.810 278.238 C 136.181 277.337,136.856 275.700,137.310 274.600 C 137.764 273.500,138.538 271.700,139.031 270.600 C 139.978 268.484,140.862 256.800,140.075 256.800 C 138.812 256.800,134.059 263.620,134.327 265.047 C 134.373 265.292,134.138 265.719,133.805 265.996 C 133.472 266.272,133.200 266.706,133.200 266.961 C 133.200 267.215,132.802 267.688,132.316 268.012 C 131.829 268.335,130.916 269.095,130.285 269.700 C 129.654 270.305,128.837 270.814,128.469 270.832 C 128.001 270.854,127.961 270.927,128.334 271.076 C 128.628 271.194,129.766 270.802,130.861 270.205 C 133.674 268.675,133.782 269.306,131.122 271.730 C 129.872 272.869,128.489 274.520,128.047 275.400 C 127.219 277.049,124.454 280.188,124.122 279.856 C 124.019 279.753,124.130 279.305,124.368 278.861 C 124.605 278.416,124.800 277.610,124.800 277.069 C 124.800 276.528,125.046 275.991,125.347 275.876 C 126.070 275.598,126.383 273.854,125.834 273.154 C 124.761 271.784,122.291 270.000,121.468 270.000 C 119.002 270.000,112.030 265.536,112.009 263.943 C 111.995 262.899,110.869 262.740,109.066 263.526 C 107.474 264.221,107.400 264.331,107.400 266.010 C 107.400 267.483,107.238 267.849,106.400 268.273 C 105.735 268.609,105.442 269.050,105.525 269.589 C 105.636 270.306,105.427 270.403,103.725 270.424 C 102.170 270.443,101.927 270.534,102.461 270.897 C 103.056 271.302,103.024 271.423,102.135 272.122 C 101.040 272.984,99.949 272.940,95.000 271.838 C 92.570 271.296,82.483 270.949,84.500 271.476 C 85.505 271.738,85.363 272.399,84.300 272.406 C 82.688 272.417,82.122 273.030,82.916 273.907 C 83.292 274.323,83.600 274.802,83.600 274.971 C 83.600 275.140,83.855 275.846,84.166 276.540 C 85.059 278.529,85.838 286.146,85.294 287.580 C 84.876 288.685,83.600 284.012,83.600 281.375 C 83.600 280.645,83.434 279.945,83.231 279.819 C 83.028 279.694,82.735 279.008,82.581 278.295 C 82.102 276.081,80.134 272.607,79.022 272.012 C 76.354 270.584,74.842 273.950,74.662 281.721 C 74.584 285.090,74.265 285.969,73.114 285.994 C 72.613 286.005,71.952 284.402,72.255 283.911 C 72.557 283.423,72.496 280.362,72.178 280.045 C 72.079 279.946,71.205 280.436,70.234 281.133 C 69.263 281.830,68.342 282.400,68.187 282.400 C 67.615 282.400,60.400 286.162,60.400 286.460 C 60.400 286.630,59.719 286.953,58.886 287.177 C 57.388 287.580,52.793 291.663,52.806 292.578 C 52.816 293.287,53.363 293.900,54.121 294.054 C 54.518 294.134,54.840 294.380,54.837 294.600 C 54.827 295.365,53.084 295.265,51.962 294.435 C 51.341 293.976,50.420 293.594,49.916 293.587 C 47.808 293.558,47.385 292.481,49.364 292.184 C 52.052 291.781,51.859 290.790,49.100 290.830 C 46.415 290.869,43.725 291.805,45.100 292.221 C 46.114 292.528,46.139 292.589,45.644 293.526 C 45.449 293.897,45.420 295.055,45.581 296.100 C 45.742 297.145,45.718 298.000,45.529 298.000 C 45.340 298.000,45.293 298.430,45.425 298.956 C 45.557 299.482,45.470 300.033,45.232 300.180 C 44.330 300.737,44.819 301.259,46.000 301.000 C 46.716 300.843,47.200 300.900,47.200 301.141 C 47.200 301.364,47.560 301.660,48.000 301.800 C 49.125 302.157,48.996 302.622,47.612 303.195 C 46.760 303.548,46.450 303.929,46.512 304.543 C 46.580 305.207,46.353 305.428,45.500 305.527 C 44.870 305.599,44.400 305.898,44.400 306.227 C 44.400 306.797,43.162 307.029,42.681 306.547 C 42.542 306.409,42.692 305.919,43.014 305.458 C 43.801 304.335,43.752 303.702,42.856 303.418 C 41.706 303.053,40.744 303.597,40.855 304.551 C 40.910 305.018,40.736 306.043,40.469 306.830 C 40.203 307.616,40.016 308.606,40.056 309.030 C 40.227 310.881,39.986 311.546,39.100 311.672 C 38.303 311.785,38.186 312.063,38.080 314.100 C 37.942 316.742,38.658 317.197,40.089 315.378 C 41.124 314.062,42.935 314.141,43.129 315.511 C 43.230 316.221,42.988 316.516,42.029 316.850 C 41.277 317.112,40.800 317.555,40.800 317.991 C 40.800 318.785,38.923 319.731,37.748 319.529 C 36.434 319.303,36.615 320.906,37.991 321.681 C 39.493 322.528,39.601 323.813,38.200 324.164 C 37.554 324.326,37.200 324.696,37.200 325.208 C 37.200 326.173,36.890 326.205,35.931 325.338 C 35.251 324.722,35.149 324.722,34.458 325.348 C 34.050 325.717,33.441 325.914,33.106 325.785 C 32.745 325.647,32.185 325.929,31.733 326.476 C 30.037 328.531,26.711 329.141,25.600 327.600 C 24.532 326.118,22.000 327.246,22.000 329.203 C 22.000 329.814,21.738 330.415,21.417 330.538 C 20.672 330.824,18.918 333.591,18.548 335.063 C 18.393 335.684,18.025 336.432,17.733 336.725 C 17.440 337.018,17.194 337.559,17.187 337.929 C 17.180 338.298,16.910 338.949,16.587 339.376 C 16.264 339.804,16.000 340.648,16.000 341.253 C 16.000 341.858,15.840 342.451,15.645 342.572 C 15.450 342.693,15.165 343.460,15.012 344.277 C 14.859 345.094,14.381 346.454,13.950 347.298 C 12.806 349.541,12.308 354.620,12.744 359.600 C 12.987 362.382,12.974 363.969,12.707 364.300 C 12.426 364.646,12.448 364.800,12.776 364.800 C 13.550 364.800,12.848 368.491,11.936 369.216 C 11.469 369.588,11.259 370.089,11.409 370.478 C 11.545 370.833,11.388 371.905,11.060 372.862 C 10.480 374.556,10.455 374.575,10.066 373.600 C 9.673 372.613,9.659 372.621,8.934 374.296 C 8.530 375.229,7.996 375.994,7.746 375.996 C 7.289 376.000,6.000 378.338,6.000 379.160 C 6.000 379.402,6.360 379.600,6.800 379.600 C 7.240 379.600,7.600 379.773,7.600 379.984 C 7.600 380.439,5.993 382.000,5.525 382.000 C 5.346 382.000,5.200 382.270,5.200 382.600 C 5.200 382.930,5.042 383.200,4.850 383.200 C 4.657 383.200,4.386 384.145,4.247 385.300 C 3.670 390.115,3.510 390.800,2.958 390.800 C 2.404 390.800,2.267 391.946,2.299 396.300 C 2.307 397.408,2.136 398.000,1.807 398.000 C 1.460 398.000,1.216 399.118,1.022 401.595 C 0.867 403.572,0.574 405.292,0.370 405.418 C -0.506 405.960,-0.082 505.001,0.800 505.800 C 1.240 506.198,1.600 506.992,1.600 507.565 C 1.600 508.137,1.782 509.234,2.004 510.003 C 2.448 511.540,3.048 519.019,3.447 528.000 C 3.589 531.190,3.845 534.175,4.017 534.633 C 4.189 535.092,4.176 535.716,3.987 536.021 C 3.228 537.250,4.465 543.235,6.208 546.762 C 6.962 548.286,7.961 550.673,8.428 552.067 C 8.913 553.511,9.713 554.967,10.289 555.455 C 11.048 556.097,11.320 556.742,11.381 558.055 C 11.472 559.973,12.091 561.762,12.821 562.213 C 13.079 562.373,13.630 563.271,14.045 564.209 C 14.460 565.147,15.082 566.023,15.427 566.155 C 15.845 566.315,15.970 566.665,15.801 567.198 C 15.547 567.998,15.675 568.000,79.926 568.000 C 142.616 568.000,144.312 567.980,144.503 567.247 C 144.619 566.805,145.339 566.292,146.250 566.003 C 147.103 565.733,147.998 565.263,148.241 564.960 C 148.484 564.657,149.378 564.118,150.228 563.762 C 151.079 563.407,152.455 562.415,153.287 561.558 C 154.119 560.701,155.047 560.000,155.349 560.000 C 156.122 560.000,159.600 558.009,159.600 557.566 C 159.600 557.365,160.410 557.200,161.400 557.200 C 162.390 557.200,163.200 557.056,163.200 556.880 C 163.200 556.705,163.847 556.327,164.637 556.041 C 165.427 555.755,166.437 555.104,166.881 554.593 C 167.325 554.082,168.123 553.555,168.655 553.422 C 169.740 553.150,173.727 550.803,173.933 550.316 C 174.007 550.142,174.322 550.000,174.633 550.000 C 174.945 550.000,175.200 549.820,175.200 549.600 C 175.200 549.380,175.787 549.200,176.505 549.200 C 177.468 549.200,177.914 548.967,178.205 548.312 C 178.451 547.758,179.107 547.321,179.946 547.153 C 180.687 547.004,181.767 546.537,182.346 546.115 C 182.926 545.694,184.194 545.035,185.164 544.652 C 186.134 544.269,187.746 543.235,188.745 542.356 C 190.147 541.122,197.282 537.200,198.126 537.200 C 198.210 537.200,199.922 536.210,201.929 535.000 C 203.936 533.790,205.750 532.800,205.961 532.800 C 206.171 532.800,206.605 532.538,206.926 532.217 C 207.247 531.896,209.464 530.711,211.854 529.584 C 220.264 525.616,222.201 524.643,222.333 524.323 C 222.407 524.145,222.715 524.000,223.019 524.000 C 223.531 524.000,230.124 520.359,232.400 518.819 C 233.761 517.898,236.198 516.800,236.880 516.800 C 237.188 516.800,237.641 516.599,237.886 516.354 C 238.408 515.832,239.698 515.061,241.432 514.234 C 242.109 513.911,242.882 513.383,243.148 513.062 C 243.415 512.741,244.072 512.368,244.608 512.234 C 245.145 512.099,246.520 511.437,247.664 510.762 C 248.808 510.088,250.417 509.266,251.241 508.937 C 252.064 508.607,252.828 508.104,252.938 507.818 C 253.047 507.532,254.501 506.875,256.169 506.357 C 257.836 505.840,259.200 505.278,259.200 505.108 C 259.200 504.939,259.446 504.800,259.746 504.800 C 260.046 504.800,260.721 504.465,261.246 504.055 C 261.771 503.645,262.650 503.172,263.200 503.003 C 263.750 502.834,265.640 502.016,267.400 501.184 C 275.803 497.214,277.550 497.426,280.000 502.710 C 284.320 512.028,286.951 516.768,290.639 521.871 C 293.683 526.083,294.820 527.911,296.938 532.000 C 297.678 533.430,299.115 535.950,300.131 537.600 C 301.146 539.250,302.099 541.320,302.249 542.200 C 302.707 544.897,302.608 548.931,302.080 549.107 C 301.799 549.200,301.696 549.642,301.829 550.174 C 301.999 550.851,301.693 551.469,300.629 552.597 C 299.843 553.430,299.200 554.267,299.200 554.456 C 299.200 554.990,300.309 554.861,300.535 554.300 C 300.646 554.025,300.751 556.275,300.768 559.300 C 300.787 562.598,300.957 564.800,301.191 564.800 C 301.430 564.800,301.404 565.192,301.127 565.800 C 300.877 566.350,300.520 566.800,300.336 566.800 C 300.151 566.800,300.000 566.350,300.000 565.800 C 300.000 564.063,298.938 564.627,298.868 566.400 L 298.806 568.000 349.403 568.000 L 400.000 568.000 399.996 516.500 L 399.991 465.000 399.012 458.291 C 397.927 450.856,398.027 449.387,399.520 450.880 C 399.893 451.253,400.000 449.603,400.000 443.452 L 400.000 435.544 398.859 433.872 C 397.194 431.431,396.802 430.604,395.322 426.400 C 394.586 424.310,394.078 423.084,394.193 423.675 C 394.309 424.267,394.222 424.863,394.001 424.999 C 393.490 425.315,393.465 422.642,393.970 421.695 C 394.174 421.313,394.815 417.940,395.395 414.200 C 395.976 410.460,396.713 406.369,397.034 405.110 C 397.354 403.850,397.878 400.970,398.197 398.710 C 398.516 396.449,399.049 393.070,399.381 391.200 C 400.207 386.553,400.323 221.231,399.500 221.153 C 397.652 220.977,394.751 223.072,394.015 225.114 C 393.720 225.931,392.909 227.348,392.213 228.262 C 391.474 229.231,390.721 230.899,390.406 232.262 C 390.109 233.548,389.732 234.780,389.569 235.000 C 389.405 235.220,389.147 236.067,388.994 236.883 C 388.685 238.541,387.821 241.202,387.554 241.322 C 387.238 241.464,385.200 239.693,385.200 239.276 C 385.200 239.051,385.008 238.803,384.774 238.725 C 382.065 237.822,386.682 227.600,389.799 227.600 C 390.153 227.600,391.168 226.357,391.187 225.900 C 391.241 224.644,385.381 227.508,383.325 229.742 C 379.977 233.381,379.843 233.910,379.755 243.800 C 379.662 254.194,379.680 253.814,379.300 253.432 C 379.135 253.266,379.000 249.231,379.000 244.465 C 379.000 227.117,378.837 221.920,378.300 222.107 C 378.025 222.203,377.840 222.713,377.889 223.240 C 378.174 226.293,378.001 232.959,377.628 233.332 C 377.131 233.829,377.005 280.404,377.500 280.394 C 378.675 280.370,378.767 279.553,378.882 268.120 C 378.947 261.710,379.135 256.331,379.300 256.166 C 379.830 255.637,380.065 256.281,380.286 258.868 C 380.425 260.505,380.757 261.683,381.224 262.200 C 382.185 263.264,382.800 264.960,382.800 266.547 C 382.800 269.219,386.378 272.336,391.099 273.779 C 392.424 274.184,392.619 275.738,391.822 279.569 C 390.989 283.577,390.886 293.907,391.627 299.000 C 392.316 303.727,392.445 309.537,391.873 310.010 C 391.613 310.225,390.956 310.740,390.413 311.154 C 389.602 311.774,389.514 312.015,389.920 312.503 C 390.486 313.186,390.205 314.236,389.369 314.557 C 388.520 314.882,388.661 316.775,390.015 323.218 C 391.639 330.945,392.326 334.727,392.846 338.800 C 393.402 343.158,393.550 343.400,395.660 343.400 L 397.371 343.400 398.050 346.299 C 398.423 347.893,398.844 350.683,398.986 352.499 C 399.254 355.942,399.345 355.289,395.560 377.200 C 394.895 381.050,394.170 385.460,393.949 387.000 C 393.728 388.540,393.199 391.780,392.774 394.200 C 392.349 396.620,391.749 400.096,391.442 401.925 C 390.785 405.834,390.655 406.033,389.506 404.883 L 388.633 404.011 389.391 400.506 C 390.474 395.495,390.012 392.800,388.071 392.800 C 385.621 392.800,386.730 390.880,390.130 389.234 L 391.936 388.360 392.216 385.362 C 392.371 383.713,392.387 382.254,392.252 382.119 C 392.041 381.907,387.880 383.008,385.947 383.787 C 385.067 384.141,384.760 381.782,385.297 378.800 C 385.734 376.377,385.462 369.289,384.861 367.400 C 384.651 366.740,384.086 364.850,383.605 363.200 C 382.249 358.543,381.605 356.701,380.874 355.400 C 380.325 354.423,380.200 353.084,380.200 348.200 L 380.200 342.200 378.737 342.284 C 376.162 342.431,376.125 340.849,378.694 340.431 L 380.196 340.187 380.139 335.594 C 380.107 333.067,380.043 329.740,379.996 328.200 C 379.895 324.861,380.216 321.891,380.797 320.805 C 381.034 320.364,381.091 319.529,380.927 318.908 C 380.766 318.299,380.683 317.561,380.742 317.269 C 380.801 316.977,380.478 316.641,380.025 316.522 C 378.932 316.237,378.833 313.696,379.900 313.345 C 380.285 313.218,381.167 312.864,381.860 312.557 C 382.554 312.251,384.139 312.000,385.384 312.000 C 388.230 312.000,387.955 311.352,384.949 310.976 C 383.416 310.785,382.621 310.842,382.426 311.158 C 381.989 311.865,377.600 312.038,377.600 311.348 C 377.600 311.047,377.825 310.794,378.100 310.786 C 380.410 310.719,381.525 307.106,379.817 305.219 C 379.478 304.844,379.206 304.281,379.213 303.969 C 379.222 303.567,379.398 303.628,379.813 304.176 C 380.363 304.904,380.400 304.861,380.400 303.476 C 380.400 301.728,379.903 301.612,377.780 302.865 C 376.337 303.716,376.318 303.760,376.571 305.669 C 376.797 307.369,376.711 307.725,375.872 308.564 C 375.347 309.090,374.824 309.763,374.712 310.060 C 374.553 310.479,375.234 327.838,375.564 331.800 C 376.143 338.740,376.022 345.200,375.314 345.200 C 373.262 345.200,371.496 341.941,370.803 336.872 C 370.286 333.091,369.400 331.180,366.386 327.344 C 364.048 324.369,359.200 317.016,359.200 316.445 C 359.200 316.237,359.058 316.007,358.884 315.933 C 358.365 315.715,356.400 311.678,356.400 310.831 C 356.400 310.400,356.177 309.909,355.904 309.741 C 355.564 309.531,355.722 309.337,356.404 309.125 C 357.356 308.829,357.351 308.821,356.281 308.956 C 355.247 309.086,353.200 307.282,353.200 306.240 C 353.200 305.669,351.590 302.441,351.178 302.186 C 350.940 302.039,350.861 301.435,350.997 300.813 C 351.177 299.992,351.067 299.635,350.576 299.446 C 350.098 299.263,349.960 298.853,350.087 297.990 C 350.229 297.019,350.138 296.829,349.611 296.997 C 348.412 297.377,345.757 295.740,345.006 294.157 C 344.195 292.446,343.021 291.298,340.121 289.379 C 338.978 288.622,337.545 287.351,336.937 286.553 C 335.805 285.069,333.222 283.200,332.302 283.200 C 332.020 283.200,330.621 282.162,329.194 280.893 C 327.768 279.625,325.914 278.077,325.076 277.455 C 323.769 276.484,323.640 276.257,324.170 275.861 C 325.114 275.156,324.758 241.444,323.752 236.300 C 323.511 235.069,324.519 234.689,324.962 235.845 C 325.138 236.305,325.523 236.426,326.305 236.269 C 329.338 235.660,330.676 235.299,331.452 234.882 C 331.921 234.630,333.991 234.054,336.052 233.602 C 340.392 232.650,343.303 231.761,344.997 230.870 C 345.656 230.523,347.168 230.108,348.357 229.946 C 350.892 229.602,352.610 228.400,350.566 228.400 C 349.903 228.400,349.162 228.598,348.920 228.840 C 348.222 229.538,345.829 228.888,346.430 228.164 C 346.928 227.564,348.221 227.399,348.501 227.900 C 348.593 228.065,348.610 227.963,348.537 227.674 C 348.444 227.305,348.673 227.223,349.303 227.400 C 349.796 227.539,350.020 227.506,349.800 227.326 C 349.039 226.705,349.284 225.666,350.250 225.423 C 350.772 225.292,351.200 224.987,351.200 224.746 C 351.200 224.483,350.838 224.407,350.300 224.556 C 349.805 224.693,347.600 225.173,345.400 225.624 C 343.200 226.074,339.960 226.873,338.200 227.399 C 336.440 227.925,333.560 228.654,331.800 229.019 C 319.849 231.496,320.800 231.047,320.800 234.219 C 320.800 235.688,320.608 236.872,320.343 237.035 C 320.051 237.216,320.267 237.518,320.943 237.872 C 321.854 238.349,322.002 238.687,322.016 240.313 C 322.025 241.351,322.190 249.394,322.384 258.187 C 322.786 276.481,322.925 275.600,319.635 275.600 C 318.349 275.600,316.655 275.868,315.870 276.196 C 314.968 276.573,314.353 276.647,314.198 276.396 C 314.063 276.178,313.311 276.000,312.527 276.000 C 311.358 276.000,311.185 275.900,311.562 275.446 C 312.088 274.812,308.095 273.926,304.800 273.945 C 303.502 273.952,303.223 273.865,303.800 273.633 C 304.734 273.257,303.398 273.002,298.331 272.588 C 296.226 272.416,295.193 272.159,295.043 271.769 C 294.923 271.456,294.324 271.197,293.713 271.194 C 292.624 271.188,290.854 270.419,291.900 270.406 C 293.433 270.387,292.050 269.619,290.100 269.407 C 288.835 269.269,286.900 268.777,285.800 268.314 C 282.914 267.100,277.975 264.844,276.738 264.175 C 276.154 263.859,275.472 263.600,275.222 263.600 C 274.794 263.600,265.445 259.241,262.400 257.622 C 261.630 257.212,260.100 256.600,259.000 256.262 C 257.900 255.924,254.930 254.741,252.400 253.634 C 249.870 252.528,247.282 251.617,246.650 251.611 C 245.580 251.601,245.517 251.514,245.747 250.367 C 245.882 249.689,245.784 248.744,245.527 248.267 C 245.271 247.790,245.017 246.950,244.963 246.400 C 244.645 243.198,244.299 240.902,244.027 240.200 C 243.857 239.760,243.415 238.506,243.046 237.412 C 241.328 232.335,239.486 230.723,239.031 233.900 C 238.370 238.517,237.095 241.369,235.516 241.763 C 234.715 241.963,233.981 242.413,233.885 242.763 C 233.789 243.113,233.153 243.721,232.472 244.112 L 231.235 244.825 231.478 242.712 C 231.771 240.161,232.790 238.048,235.251 234.893 C 236.269 233.588,237.693 231.278,238.415 229.760 C 239.137 228.242,240.599 225.718,241.664 224.152 C 242.729 222.585,243.600 221.115,243.600 220.885 C 243.600 220.655,243.750 220.407,243.932 220.333 C 244.115 220.260,244.933 218.760,245.750 217.000 C 246.567 215.240,247.407 213.487,247.618 213.105 C 248.273 211.916,248.049 211.431,247.200 212.200 C 246.760 212.598,246.400 213.256,246.400 213.662 C 246.400 214.068,246.220 214.400,246.000 214.400 C 245.780 214.400,245.600 214.021,245.600 213.557 C 245.600 212.972,245.416 212.785,245.000 212.945 C 244.113 213.285,244.201 210.841,245.100 210.152 C 245.604 209.766,245.669 209.528,245.332 209.304 C 245.074 209.132,244.743 208.511,244.595 207.923 C 244.248 206.541,243.041 206.855,243.309 208.257 C 243.469 209.096,243.342 209.200,242.145 209.200 C 241.226 209.200,240.800 209.387,240.800 209.790 C 240.800 210.223,240.502 210.320,239.678 210.156 C 238.923 210.005,238.383 210.139,238.029 210.566 C 237.739 210.914,237.191 211.200,236.811 211.200 C 234.493 211.200,233.682 211.966,233.397 214.427 C 233.168 216.403,232.993 216.800,232.355 216.800 C 231.934 216.800,231.262 217.004,230.863 217.254 C 229.947 217.825,227.745 216.589,228.360 215.849 C 228.565 215.601,228.733 214.560,228.733 213.535 C 228.733 212.510,228.925 211.313,229.160 210.874 C 229.680 209.904,229.041 205.939,228.144 204.571 C 227.208 203.142,226.447 203.083,225.377 204.355 C 223.720 206.324,222.527 206.228,219.513 203.882 C 218.123 202.799,217.969 202.772,214.738 203.024 C 210.059 203.391,210.000 203.387,210.000 202.696 C 210.000 202.419,209.619 201.955,209.154 201.664 C 207.678 200.743,208.251 195.279,209.986 193.729 L 211.277 192.576 210.418 191.121 C 209.044 188.792,208.071 188.376,203.766 188.279 C 200.415 188.203,199.978 188.272,200.128 188.846 M184.500 190.377 C 183.974 190.816,183.600 191.577,183.600 192.208 L 183.600 193.287 186.593 193.136 C 190.263 192.951,191.409 192.198,190.009 190.894 C 188.491 189.480,185.870 189.235,184.500 190.377 M300.800 191.047 C 297.390 191.345,292.710 191.776,290.400 192.003 C 288.090 192.231,281.070 192.863,274.800 193.408 C 262.509 194.474,259.384 194.944,259.066 195.773 C 258.366 197.597,257.297 207.651,256.193 222.800 C 255.865 227.310,255.529 231.419,255.447 231.932 C 255.242 233.219,255.815 233.325,259.233 232.638 C 269.069 230.658,275.586 230.098,294.567 229.601 C 302.470 229.394,309.075 229.084,309.245 228.913 C 309.702 228.453,310.481 220.185,310.330 217.400 L 310.200 215.000 306.633 215.105 C 304.671 215.163,302.061 215.396,300.833 215.623 C 296.159 216.488,290.992 217.330,285.000 218.205 C 284.120 218.334,282.422 218.610,281.227 218.819 C 278.144 219.359,276.296 219.312,276.498 218.700 C 276.596 218.403,278.433 217.917,281.031 217.502 C 283.434 217.118,287.290 216.451,289.600 216.020 C 291.910 215.590,295.690 214.960,298.000 214.621 C 307.429 213.236,310.596 212.560,310.723 211.903 C 310.983 210.558,308.582 210.696,298.133 212.625 C 292.238 213.713,284.281 214.959,277.734 215.820 C 276.139 216.029,274.400 215.051,274.400 213.945 C 274.400 213.455,271.974 210.000,271.630 210.000 C 271.458 210.000,271.406 209.081,271.514 207.958 C 271.652 206.520,271.553 205.818,271.181 205.588 C 270.743 205.318,270.742 204.987,271.176 203.673 C 271.464 202.800,271.581 201.892,271.435 201.656 C 271.289 201.420,271.804 200.816,272.580 200.314 C 273.355 199.811,273.992 199.208,273.995 198.974 C 274.011 197.614,291.007 197.545,292.700 198.898 C 293.325 199.398,293.367 198.727,292.749 198.109 C 291.731 197.091,292.702 195.600,294.384 195.600 C 295.247 195.600,296.060 195.426,296.192 195.213 C 296.323 195.000,296.982 194.936,297.656 195.071 C 298.965 195.333,299.999 194.497,299.079 193.921 C 298.804 193.749,299.110 193.624,299.800 193.627 C 300.460 193.630,302.620 193.436,304.600 193.196 C 310.308 192.504,311.247 192.574,312.272 193.766 C 313.171 194.811,313.814 195.000,314.967 194.557 C 315.943 194.183,315.718 193.300,314.500 192.720 C 313.895 192.432,313.222 191.792,313.005 191.298 C 312.531 190.219,310.712 190.181,300.800 191.047 M301.700 194.276 C 302.085 194.376,302.715 194.376,303.100 194.276 C 303.485 194.175,303.170 194.093,302.400 194.093 C 301.630 194.093,301.315 194.175,301.700 194.276 M239.000 198.800 C 239.136 199.020,239.597 199.200,240.024 199.200 C 240.451 199.200,240.800 199.020,240.800 198.800 C 240.800 198.580,240.339 198.400,239.776 198.400 C 239.196 198.400,238.860 198.573,239.000 198.800 M289.200 199.600 C 288.870 199.813,287.841 199.991,286.914 199.994 C 285.636 199.999,285.124 200.195,284.796 200.808 C 284.069 202.165,284.693 202.518,287.430 202.298 C 289.347 202.145,290.002 202.228,290.163 202.648 C 290.873 204.498,293.308 202.347,292.903 200.227 C 292.691 199.120,290.514 198.751,289.200 199.600 M293.200 200.000 C 293.200 200.602,293.409 200.818,293.900 200.724 C 294.285 200.650,294.600 200.324,294.600 200.000 C 294.600 199.676,294.285 199.350,293.900 199.276 C 293.409 199.182,293.200 199.398,293.200 200.000 M243.400 212.372 C 243.400 212.681,243.220 212.990,243.000 213.060 C 242.344 213.268,241.475 212.526,241.786 212.023 C 242.172 211.398,243.400 211.664,243.400 212.372 M399.295 216.186 C 399.399 216.728,399.285 217.239,399.042 217.320 C 398.259 217.582,398.495 220.400,399.300 220.400 C 399.895 220.400,400.000 220.010,400.000 217.800 C 400.000 216.152,399.836 215.200,399.553 215.200 C 399.294 215.200,399.186 215.614,399.295 216.186 M318.078 222.187 L 317.157 222.695 318.078 222.942 C 319.468 223.314,319.600 223.267,319.600 222.400 C 319.600 221.496,319.386 221.466,318.078 222.187 M205.579 223.470 C 204.748 223.822,203.302 224.003,201.937 223.927 C 200.628 223.854,199.770 223.955,199.903 224.168 C 200.031 224.375,199.816 224.415,199.409 224.259 C 198.997 224.101,198.298 224.237,197.780 224.576 C 197.282 224.903,195.642 225.291,194.137 225.439 C 189.358 225.909,188.940 227.074,191.930 231.597 C 192.002 231.705,192.235 231.480,192.450 231.097 C 192.947 230.208,193.377 230.221,195.374 231.187 C 199.129 233.003,199.852 233.108,203.357 232.346 C 205.141 231.958,206.825 231.631,207.100 231.620 C 207.422 231.607,207.600 230.967,207.600 229.824 C 207.600 228.847,207.780 227.936,208.000 227.800 C 208.220 227.664,208.400 226.879,208.400 226.056 C 208.400 225.233,208.610 224.350,208.867 224.093 C 209.336 223.624,209.291 223.589,207.479 223.043 C 207.193 222.956,206.338 223.149,205.579 223.470 M316.400 226.800 C 316.400 227.379,316.667 227.600,317.367 227.600 C 317.898 227.600,318.393 227.765,318.467 227.967 C 318.540 228.169,319.093 228.238,319.696 228.121 L 320.791 227.908 319.859 227.175 C 319.295 226.731,318.586 226.531,318.063 226.668 C 317.560 226.799,317.200 226.707,317.200 226.447 C 317.200 226.201,317.020 226.000,316.800 226.000 C 316.580 226.000,316.400 226.360,316.400 226.800 M0.047 249.633 C 0.073 252.585,0.239 255.540,0.415 256.200 C 0.592 256.860,0.637 254.520,0.516 251.000 C 0.244 243.138,-0.017 242.375,0.047 249.633 M390.000 254.800 C 390.000 255.020,389.730 255.200,389.400 255.200 C 389.070 255.200,388.800 255.020,388.800 254.800 C 388.800 254.580,389.070 254.400,389.400 254.400 C 389.730 254.400,390.000 254.580,390.000 254.800 M131.200 256.600 C 130.922 256.935,130.879 257.200,131.102 257.200 C 131.322 257.200,131.726 256.930,132.000 256.600 C 132.278 256.265,132.321 256.000,132.098 256.000 C 131.878 256.000,131.474 256.270,131.200 256.600 M391.292 256.625 C 392.377 257.710,390.845 259.000,388.471 259.000 C 385.878 259.000,385.383 258.463,387.477 257.920 C 388.149 257.746,388.924 257.332,389.199 257.002 C 389.695 256.404,390.861 256.194,391.292 256.625 M128.297 259.164 C 127.632 259.548,127.280 260.025,127.411 260.368 C 127.530 260.680,127.396 261.097,127.114 261.294 C 126.789 261.521,126.967 261.551,127.600 261.377 C 128.916 261.013,129.086 260.824,128.448 260.429 C 128.041 260.178,128.131 259.953,128.835 259.460 C 130.074 258.593,129.673 258.371,128.297 259.164 M174.000 260.032 C 174.236 260.342,178.164 262.150,179.600 262.610 L 180.600 262.930 179.424 263.251 C 178.777 263.427,178.057 263.418,177.824 263.231 C 177.591 263.044,176.590 262.760,175.600 262.600 C 173.598 262.277,172.495 261.636,173.195 261.203 C 173.434 261.056,172.902 260.718,172.014 260.452 C 170.873 260.110,170.400 259.748,170.400 259.216 C 170.400 258.477,173.319 259.139,174.000 260.032 M388.446 260.210 C 388.427 260.724,386.800 260.973,386.800 260.461 C 386.800 260.040,387.584 259.617,388.130 259.743 C 388.312 259.786,388.454 259.995,388.446 260.210 M392.303 260.500 C 392.115 261.072,389.600 261.437,389.600 260.892 C 389.600 260.263,390.102 260.000,391.300 260.000 C 392.054 260.000,392.409 260.177,392.303 260.500 M183.001 263.456 C 183.532 263.660,183.559 263.780,183.134 264.050 C 182.328 264.560,181.712 264.468,181.455 263.800 C 181.211 263.162,181.859 263.018,183.001 263.456 M189.200 264.818 C 189.638 265.115,189.476 265.152,188.600 264.956 C 187.129 264.627,186.810 264.398,187.833 264.406 C 188.255 264.409,188.870 264.595,189.200 264.818 M226.262 273.783 C 226.132 274.122,225.718 274.400,225.343 274.400 C 224.730 274.400,224.739 274.323,225.430 273.652 C 226.295 272.811,226.615 272.862,226.262 273.783 M223.802 276.141 C 223.463 276.658,222.572 277.412,221.823 277.816 C 221.073 278.219,220.271 278.966,220.039 279.475 C 219.807 279.984,219.343 280.400,219.009 280.400 C 218.674 280.400,218.400 280.567,218.400 280.771 C 218.400 281.321,216.046 282.398,215.781 281.969 C 215.657 281.768,216.060 281.384,216.677 281.116 C 218.008 280.539,219.574 279.103,220.172 277.913 C 220.495 277.269,223.522 275.293,224.309 275.211 C 224.369 275.205,224.141 275.623,223.802 276.141 M183.230 277.215 C 184.109 277.664,184.721 278.204,184.591 278.415 C 184.253 278.961,183.750 278.893,183.067 278.210 C 182.742 277.885,181.424 277.365,180.138 277.054 L 177.800 276.489 179.716 276.444 C 180.930 276.416,182.218 276.699,183.230 277.215 M395.213 281.130 C 396.335 282.039,396.773 286.881,397.044 301.400 C 397.143 306.680,397.397 311.630,397.609 312.400 C 398.377 315.182,397.883 318.000,396.629 318.000 C 395.844 318.000,395.601 317.081,395.590 314.067 C 395.585 312.600,395.388 310.680,395.152 309.800 C 394.916 308.920,394.601 307.210,394.452 306.000 C 394.303 304.790,394.006 303.530,393.791 303.200 C 392.709 301.538,392.292 282.213,393.310 280.900 C 393.830 280.229,394.148 280.268,395.213 281.130 M212.892 281.974 C 214.066 282.562,214.087 283.442,212.977 285.600 C 212.694 286.150,212.364 286.915,212.244 287.300 C 212.124 287.685,211.691 288.000,211.282 288.000 C 210.021 288.000,208.775 289.720,208.641 291.645 C 208.575 292.610,208.055 294.210,207.486 295.200 C 206.917 296.190,206.180 297.585,205.847 298.300 C 204.862 300.413,203.479 299.549,201.207 295.400 C 200.485 294.080,199.784 292.820,199.650 292.600 C 197.805 289.568,198.163 286.800,200.400 286.800 C 201.551 286.800,203.592 285.970,203.597 285.500 C 203.599 285.335,203.835 285.200,204.122 285.200 C 204.410 285.200,205.265 284.731,206.022 284.158 C 208.080 282.602,209.693 281.979,210.320 282.500 C 210.716 282.828,210.896 282.720,211.071 282.049 C 211.198 281.564,211.414 281.225,211.551 281.296 C 211.688 281.368,212.292 281.672,212.892 281.974 M181.860 282.306 C 182.114 282.468,181.360 282.609,180.186 282.621 C 179.012 282.632,178.140 282.497,178.249 282.321 C 178.497 281.920,181.238 281.909,181.860 282.306 M184.800 287.600 C 184.800 287.820,184.035 287.982,183.100 287.960 C 181.656 287.926,181.550 287.872,182.400 287.600 C 183.839 287.139,184.800 287.139,184.800 287.600 M376.597 291.251 C 374.301 292.478,373.101 293.491,373.587 293.792 C 374.134 294.130,374.114 296.113,373.550 297.350 C 373.176 298.172,373.242 298.536,373.950 299.530 C 374.418 300.186,374.800 300.935,374.800 301.194 C 374.800 301.518,375.203 301.572,376.100 301.368 C 376.815 301.205,377.760 301.040,378.200 301.002 C 378.859 300.945,379.010 300.622,379.056 299.167 C 379.087 298.195,379.208 296.225,379.325 294.789 C 379.493 292.727,379.396 291.990,378.866 291.287 L 378.194 290.397 376.597 291.251 M35.600 293.091 C 31.606 293.894,28.389 294.827,27.361 295.479 C 26.899 295.772,26.179 295.972,25.761 295.923 C 24.744 295.804,22.438 296.296,18.800 297.407 C 17.150 297.911,14.675 298.558,13.300 298.844 C 11.925 299.131,10.800 299.508,10.800 299.683 C 10.800 299.857,10.080 300.000,9.200 300.000 C 8.320 300.000,7.600 300.180,7.600 300.400 C 7.600 300.620,6.976 300.800,6.214 300.800 C 5.452 300.800,4.029 301.071,3.053 301.403 C 2.077 301.734,0.991 301.895,0.639 301.760 C 0.065 301.540,0.000 302.420,0.000 310.357 C 0.000 315.221,0.136 319.200,0.303 319.200 C 0.469 319.200,1.234 319.004,2.003 318.764 C 2.771 318.524,4.390 318.093,5.600 317.807 C 9.039 316.994,21.310 313.602,22.200 313.219 C 22.640 313.029,23.900 312.661,25.000 312.400 C 26.100 312.139,27.360 311.775,27.800 311.591 C 28.240 311.407,29.237 311.062,30.016 310.825 C 31.459 310.385,32.800 308.721,32.800 307.370 C 32.800 306.981,33.047 306.379,33.348 306.031 C 33.650 305.684,34.290 304.199,34.771 302.730 C 35.252 301.262,35.905 299.845,36.223 299.581 C 36.540 299.318,36.800 298.854,36.800 298.551 C 36.800 298.248,36.963 298.000,37.163 298.000 C 37.362 298.000,37.839 297.004,38.222 295.787 C 38.604 294.570,39.071 293.480,39.259 293.364 C 40.832 292.391,39.555 292.296,35.600 293.091 M42.495 293.582 C 41.997 293.997,41.367 294.416,41.095 294.514 C 40.823 294.611,40.712 294.812,40.848 294.960 C 41.220 295.364,42.974 294.453,43.525 293.572 C 44.133 292.597,43.669 292.602,42.495 293.582 M357.600 309.597 C 357.600 309.894,360.525 310.400,362.243 310.400 C 362.910 310.400,363.109 310.228,362.943 309.796 C 362.700 309.163,357.600 308.973,357.600 309.597 M376.794 309.700 C 376.780 310.842,376.012 311.426,376.006 310.300 C 376.003 309.695,376.180 309.200,376.400 309.200 C 376.620 309.200,376.797 309.425,376.794 309.700 M366.898 310.100 C 366.988 310.375,367.768 310.627,368.631 310.661 C 369.520 310.695,369.767 310.637,369.200 310.527 C 368.650 310.420,368.029 310.168,367.820 309.966 C 367.269 309.435,366.706 309.517,366.898 310.100 M169.330 312.263 C 169.785 312.718,168.744 313.600,167.751 313.600 C 166.548 313.600,166.517 312.888,167.700 312.412 C 168.837 311.955,169.007 311.940,169.330 312.263 M378.000 313.400 C 378.000 313.730,377.820 314.000,377.600 314.000 C 377.380 314.000,377.200 313.730,377.200 313.400 C 377.200 313.070,377.380 312.800,377.600 312.800 C 377.820 312.800,378.000 313.070,378.000 313.400 M46.200 316.800 C 46.340 317.027,46.004 317.200,45.424 317.200 C 44.861 317.200,44.400 317.020,44.400 316.800 C 44.400 316.580,44.749 316.400,45.176 316.400 C 45.603 316.400,46.064 316.580,46.200 316.800 M34.800 320.600 C 34.800 322.257,35.843 322.565,36.230 321.023 C 36.515 319.887,36.194 319.200,35.376 319.200 C 34.984 319.200,34.800 319.648,34.800 320.600 M165.300 322.200 C 165.151 322.794,163.095 322.685,162.890 322.071 C 162.763 321.688,163.083 321.578,164.057 321.671 C 164.796 321.742,165.355 321.980,165.300 322.200 M34.243 323.033 C 33.891 323.950,33.919 324.000,34.800 324.000 C 35.333 324.000,35.600 323.733,35.600 323.200 C 35.600 322.251,34.591 322.126,34.243 323.033 M168.400 323.800 C 169.114 324.208,169.209 324.376,168.733 324.386 C 167.793 324.406,166.800 323.980,166.800 323.557 C 166.800 323.065,167.227 323.130,168.400 323.800 M200.974 323.990 C 201.538 324.205,202.000 324.675,202.000 325.036 C 202.000 325.638,201.914 325.636,200.962 325.012 C 199.712 324.193,198.521 324.425,197.069 325.771 C 196.384 326.406,196.000 326.566,196.000 326.216 C 196.000 324.598,199.019 323.247,200.974 323.990 M165.200 325.600 C 166.210 326.153,166.385 326.371,165.828 326.383 C 164.798 326.406,162.400 325.522,162.400 325.120 C 162.400 324.571,163.740 324.801,165.200 325.600 M202.946 330.370 C 202.709 331.557,201.853 332.386,201.367 331.901 C 201.174 331.707,202.899 328.809,203.103 328.984 C 203.159 329.033,203.089 329.656,202.946 330.370 M197.718 331.906 C 198.203 332.138,198.960 332.468,199.400 332.640 C 200.109 332.917,200.070 332.970,199.065 333.106 C 197.704 333.290,196.380 332.244,196.446 331.038 C 196.479 330.453,196.545 330.394,196.665 330.842 C 196.759 331.195,197.233 331.674,197.718 331.906 M196.004 410.648 C 196.894 411.005,197.813 411.650,198.044 412.082 C 198.680 413.271,198.262 413.318,196.965 412.203 C 195.438 410.890,193.492 410.882,191.787 412.183 C 191.079 412.723,190.396 413.063,190.270 412.937 C 189.803 412.470,191.335 410.787,192.546 410.435 C 194.285 409.932,194.200 409.926,196.004 410.648 M198.153 419.035 C 196.705 421.725,192.123 421.430,190.416 418.537 C 189.359 416.746,190.186 416.814,191.822 418.653 C 192.989 419.965,193.252 420.079,194.543 419.837 C 196.533 419.464,196.870 418.724,194.979 418.878 C 194.004 418.958,193.419 418.815,193.298 418.467 C 193.156 418.061,193.573 417.963,195.056 418.056 C 196.937 418.174,197.026 418.129,197.800 416.683 L 198.600 415.188 198.730 416.456 C 198.801 417.153,198.542 418.313,198.153 419.035 M60.425 418.613 C 63.050 419.971,70.385 429.601,73.458 435.726 C 74.251 437.307,76.138 440.442,77.650 442.693 C 79.163 444.944,80.400 446.954,80.400 447.160 C 80.400 447.367,80.659 448.045,80.975 448.668 C 81.291 449.290,81.878 450.673,82.280 451.739 C 83.205 454.199,83.700 454.267,84.169 452.000 C 84.884 448.544,86.584 447.958,87.943 450.700 C 88.461 451.745,89.136 453.078,89.442 453.662 C 90.115 454.943,90.164 456.000,89.551 456.000 C 89.241 456.000,89.256 456.185,89.600 456.600 C 89.874 456.930,90.512 457.200,91.018 457.200 C 91.736 457.200,93.849 458.499,95.930 460.219 C 96.002 460.278,96.097 460.568,96.141 460.863 C 96.186 461.159,96.355 461.613,96.518 461.872 C 97.104 462.809,89.447 462.692,87.904 461.740 C 87.742 461.640,86.530 461.770,85.211 462.030 C 82.539 462.555,81.470 462.166,79.739 460.033 C 79.265 459.450,77.965 458.545,76.849 458.023 C 74.618 456.978,74.248 456.296,73.855 452.503 C 73.705 451.048,73.142 449.555,72.019 447.633 C 71.129 446.108,70.400 444.763,70.400 444.644 C 70.400 444.438,67.558 439.844,66.908 439.000 C 66.739 438.779,66.092 437.920,65.472 437.089 C 64.216 435.409,61.532 432.826,58.800 430.671 C 53.905 426.809,54.152 427.169,53.638 423.160 C 53.137 419.257,53.285 418.687,54.986 417.965 C 55.998 417.535,59.043 417.898,60.425 418.613 M257.800 454.607 C 259.560 454.740,261.720 454.956,262.600 455.087 C 263.480 455.217,269.780 455.373,276.600 455.433 C 283.420 455.493,290.080 455.670,291.400 455.826 C 292.720 455.983,296.007 456.156,298.704 456.210 C 303.726 456.312,304.800 456.622,304.800 457.973 C 304.800 458.345,305.676 459.453,306.747 460.436 C 307.818 461.420,309.099 463.029,309.594 464.012 C 310.088 464.995,310.716 466.070,310.989 466.400 C 311.261 466.730,311.800 467.990,312.185 469.200 C 312.570 470.410,313.223 472.300,313.636 473.400 C 315.221 477.624,315.214 477.654,312.138 479.690 C 308.473 482.115,307.146 483.395,307.457 484.204 C 307.905 485.372,306.773 486.778,305.031 487.217 C 300.347 488.398,290.941 490.973,287.600 491.990 C 285.510 492.627,282.720 493.458,281.400 493.839 C 280.080 494.219,277.032 495.401,274.627 496.465 C 272.222 497.529,269.986 498.400,269.658 498.400 C 269.331 498.400,267.929 498.854,266.543 499.408 C 265.157 499.963,263.090 500.593,261.951 500.809 C 260.812 501.025,259.681 501.361,259.440 501.555 C 259.198 501.749,257.523 502.278,255.718 502.730 C 253.913 503.182,252.080 503.743,251.645 503.976 C 251.209 504.209,250.311 504.400,249.650 504.400 C 248.988 504.400,248.336 504.580,248.200 504.800 C 248.064 505.020,247.591 505.200,247.150 505.200 C 246.708 505.200,245.765 505.644,245.054 506.186 C 244.343 506.728,242.330 507.822,240.581 508.617 C 238.831 509.412,237.013 510.423,236.539 510.864 C 236.066 511.305,234.951 511.763,234.061 511.882 C 233.172 512.002,232.113 512.408,231.709 512.785 C 231.005 513.440,229.273 514.101,228.000 514.201 C 227.670 514.226,226.893 514.462,226.274 514.724 C 225.655 514.986,224.450 515.200,223.597 515.200 C 222.549 515.200,221.876 515.438,221.523 515.934 C 221.235 516.337,220.015 517.160,218.810 517.762 C 217.606 518.365,216.166 519.345,215.610 519.942 C 214.293 521.356,211.200 522.229,211.200 521.187 C 211.200 520.211,210.021 519.857,209.211 520.590 C 208.840 520.926,208.262 521.200,207.927 521.200 C 207.591 521.200,206.809 521.670,206.189 522.245 C 205.227 523.136,204.816 523.256,203.386 523.060 C 201.979 522.867,201.571 522.979,200.841 523.756 C 200.363 524.265,198.885 525.011,197.558 525.413 C 196.231 525.815,194.928 526.453,194.664 526.831 C 193.890 527.936,190.943 529.299,189.987 528.996 C 188.842 528.632,187.067 529.424,186.590 530.511 C 186.350 531.058,185.816 531.421,185.200 531.455 C 182.916 531.582,180.115 532.573,179.760 533.380 C 179.516 533.936,178.948 534.241,178.000 534.329 C 177.230 534.399,176.429 534.624,176.220 534.829 C 176.011 535.033,175.426 535.200,174.920 535.200 C 174.369 535.200,174.000 535.441,174.000 535.800 C 174.000 536.130,173.743 536.400,173.429 536.400 C 173.115 536.400,172.394 536.985,171.826 537.700 C 170.967 538.783,170.729 538.900,170.397 538.400 C 170.063 537.894,169.944 537.887,169.643 538.355 C 169.445 538.662,168.330 539.000,167.143 539.113 C 165.135 539.305,163.714 539.907,162.471 541.095 C 161.725 541.808,160.000 541.742,160.000 541.000 C 160.000 540.670,159.831 540.400,159.625 540.400 C 159.418 540.400,159.283 540.892,159.325 541.493 C 159.397 542.542,159.300 542.599,156.900 542.928 C 155.525 543.116,154.400 543.412,154.400 543.585 C 154.400 543.758,153.874 544.005,153.232 544.134 C 152.539 544.272,151.959 544.699,151.805 545.184 C 151.663 545.633,151.275 546.000,150.944 546.000 C 150.614 546.000,150.059 546.284,149.712 546.631 C 149.358 546.985,148.727 547.170,148.276 547.052 C 147.293 546.795,146.000 547.431,146.000 548.171 C 146.000 548.824,145.153 549.200,144.139 548.998 C 141.395 548.451,140.743 548.430,140.898 548.895 C 141.187 549.762,140.290 550.320,139.205 549.946 C 137.571 549.383,134.690 550.067,134.152 551.146 C 133.879 551.693,133.623 551.870,133.526 551.578 C 133.396 551.189,133.031 551.194,131.798 551.601 C 130.468 552.040,130.179 552.029,129.865 551.530 C 129.555 551.039,129.228 551.022,127.848 551.423 C 126.941 551.687,125.300 552.115,124.200 552.374 C 123.100 552.633,122.140 553.015,122.067 553.223 C 121.993 553.430,121.498 553.600,120.967 553.600 C 120.267 553.600,120.000 553.821,120.000 554.400 C 120.000 555.342,118.884 555.484,118.539 554.586 C 118.336 554.056,118.186 554.047,117.452 554.520 C 116.322 555.248,114.800 555.616,114.800 555.163 C 114.800 554.542,111.311 554.735,111.067 555.369 C 110.678 556.384,109.098 555.644,109.309 554.544 C 109.543 553.316,107.222 553.178,106.050 554.350 C 105.155 555.245,99.832 555.089,98.883 554.140 C 98.177 553.434,97.630 553.456,97.345 554.200 C 96.822 555.563,96.490 554.645,96.693 552.400 C 96.898 550.147,96.859 550.000,96.056 550.000 C 95.308 550.000,95.194 550.240,95.154 551.900 C 95.128 552.945,95.033 553.530,94.943 553.200 C 94.853 552.870,94.109 552.150,93.290 551.601 C 90.664 549.839,90.596 549.720,91.150 547.857 C 91.422 546.946,91.769 545.728,91.922 545.151 C 92.186 544.154,93.208 542.535,94.300 541.384 C 94.575 541.094,94.800 540.599,94.800 540.283 C 94.800 539.966,95.160 539.250,95.600 538.691 C 96.040 538.131,96.400 537.136,96.400 536.480 C 96.400 535.787,96.652 535.189,97.000 535.055 C 97.330 534.929,97.600 534.571,97.600 534.262 C 97.600 533.952,97.872 533.472,98.205 533.196 C 98.537 532.920,99.167 531.953,99.604 531.047 C 100.042 530.141,100.911 528.410,101.536 527.200 C 103.454 523.487,104.800 520.607,104.809 520.194 C 104.814 519.977,105.170 519.350,105.600 518.800 C 106.030 518.250,106.386 517.431,106.391 516.980 C 106.396 516.529,106.565 515.989,106.768 515.780 C 107.288 515.242,109.894 508.828,110.350 506.960 C 111.327 502.966,112.496 499.415,113.549 497.241 C 114.182 495.935,114.822 493.996,114.972 492.933 C 115.558 488.771,118.840 472.947,119.303 472.045 C 119.788 471.101,119.841 471.093,123.997 471.374 C 132.870 471.973,146.819 472.261,151.800 471.948 C 158.525 471.525,168.900 470.474,171.200 469.983 C 172.190 469.771,174.440 469.422,176.200 469.208 C 181.539 468.556,194.718 465.945,195.684 465.348 C 195.910 465.209,196.658 464.955,197.347 464.784 C 198.036 464.614,200.490 463.937,202.800 463.281 C 205.110 462.625,208.260 461.794,209.800 461.434 C 211.340 461.074,213.320 460.602,214.200 460.385 C 215.080 460.167,216.970 459.821,218.400 459.615 C 219.830 459.408,222.800 458.948,225.000 458.592 C 227.200 458.235,230.080 457.793,231.400 457.608 C 232.720 457.424,236.617 456.714,240.060 456.030 C 246.972 454.657,251.569 454.038,253.400 454.235 C 254.060 454.306,256.040 454.473,257.800 454.607 M213.200 550.757 C 211.289 551.478,210.061 552.189,209.818 552.716 C 209.357 553.711,206.581 554.576,204.723 554.303 C 203.322 554.098,200.000 555.037,200.000 555.639 C 200.000 555.921,218.256 555.876,223.000 555.583 C 223.440 555.555,228.210 555.726,233.600 555.961 C 238.990 556.196,244.009 556.389,244.754 556.390 C 245.499 556.391,246.344 556.588,246.633 556.827 C 246.983 557.118,249.798 557.225,255.079 557.150 C 259.435 557.089,265.449 557.092,268.442 557.158 C 273.269 557.263,273.914 557.200,274.147 556.595 C 274.389 555.964,274.482 555.961,275.390 556.557 C 276.879 557.532,278.000 557.396,278.000 556.240 C 278.000 554.815,275.711 553.600,273.026 553.600 C 271.622 553.600,270.728 553.396,270.400 553.000 C 269.754 552.221,266.811 552.223,264.236 553.004 C 261.722 553.767,258.127 553.784,257.380 553.037 C 256.740 552.397,251.913 552.622,251.652 553.304 C 251.561 553.541,251.403 553.529,251.246 553.274 C 251.070 552.989,250.044 553.037,248.015 553.424 C 246.379 553.735,244.942 553.839,244.821 553.654 C 244.699 553.469,243.212 553.194,241.516 553.043 C 239.820 552.893,237.930 552.595,237.316 552.381 C 235.242 551.659,229.808 550.867,229.569 551.252 C 229.442 551.456,228.874 551.258,228.306 550.812 C 227.061 549.832,224.932 549.757,223.937 550.657 C 223.266 551.264,223.084 551.265,221.506 550.662 C 218.428 549.488,216.503 549.509,213.200 550.757 M123.424 554.038 C 123.573 554.279,123.403 554.768,123.047 555.124 C 122.451 555.721,122.400 555.686,122.400 554.686 C 122.400 553.581,122.933 553.244,123.424 554.038 M298.800 558.200 C 299.074 558.530,299.546 558.800,299.849 558.800 C 300.152 558.800,300.400 558.530,300.400 558.200 C 300.400 557.819,300.017 557.600,299.351 557.600 C 298.464 557.600,298.379 557.693,298.800 558.200 " stroke="none" fill="#1a2e3a" fill-rule="evenodd"></path></g></svg>